<?xml version="1.0" encoding="UTF-8" standalone="no"?>
<!DOCTYPE svg PUBLIC "-//W3C//DTD SVG 1.1//EN" "http://www.w3.org/Graphics/SVG/1.1/DTD/svg11.dtd">
<svg width="100%" height="100%" viewBox="0 0 258 253" version="1.1" xmlns="http://www.w3.org/2000/svg" xmlns:xlink="http://www.w3.org/1999/xlink" xml:space="preserve" xmlns:serif="http://www.serif.com/" style="fill-rule:evenodd;clip-rule:evenodd;stroke-linejoin:round;stroke-miterlimit:2;">
    <g id="Artboard1" transform="matrix(1,0,0,1,-334.285,-463.927)">
        <g transform="matrix(6.68948,0,0,6.68948,66.1769,179.986)">
            <path d="M62.854,64L76,64L76,65L62.854,65C61.907,65 61.042,65.535 60.618,66.382L58.158,71.301C58.054,71.51 58,71.739 58,71.972L58,76.5C58,76.776 58.224,77 58.5,77L67,77C67,75.343 68.343,74 70,74C71.657,74 73,75.343 73,77L76,77L76,78L72.829,78C72.418,79.165 71.306,80 70,80C68.694,80 67.583,79.165 67.171,78L58.5,78C57.672,78 57,77.328 57,76.5L57,71.972C57,71.584 57.09,71.201 57.264,70.854L59.724,65.935C60.317,64.749 61.528,64 62.854,64ZM76,67L73,67L73,71L76,71L76,72L72,72L72,66L76,66L76,67ZM71,66L65,66L65,72L71,72L71,66ZM70,67L70,71L66,71L66,67L70,67ZM72,77C72,75.895 71.105,75 70,75C68.895,75 68,75.895 68,77C68,78.105 68.895,79 70,79C71.105,79 72,78.105 72,77ZM64,66L62.191,66L59,72.382L59,74L64,74L64,66ZM63,67L63,73L60,73L60,72.618L62.809,67L63,67Z" style="fill:white;"/>
        </g>
        <g transform="matrix(6.68948,0,0,6.68948,66.1769,179.986)">
            <path d="M44.641,78.652L75.641,46.652L76.359,47.348L45.359,79.348L44.641,78.652Z" style="fill:white;"/>
        </g>
        <g transform="matrix(6.68948,0,0,6.68948,66.1769,179.986)">
            <path d="M50,42.899L50.277,43.084L53.277,45.084L53.901,45.5L53.277,45.916L51.652,47L54,47C56.051,47 57.793,48.24 58.563,50.001L58.563,50.001C58.616,50.122 58.664,50.245 58.707,50.371L60.801,56.144C60.922,56.397 61,56.686 61,57C61,58.105 60.104,59 59,59L56.95,59C56.875,59.369 56.718,59.709 56.5,60L62,60L62,60.999L42,60.999L42,60L43.5,60C43.282,59.709 43.125,59.369 43.05,59L42,59L42,58L59,58C59.552,58 60,57.552 60,57C60,56.849 59.962,56.701 59.892,56.56L59.88,56.535L59.87,56.509L59.323,55L53,55L53,50.001L57.444,50.001C56.755,48.804 55.474,48 54,48L42,48L42,47L48.348,47L46.723,45.916L46.099,45.5L46.723,45.084L49.723,43.084L50,42.899ZM57.872,51.001L54,51.001L54,54L58.96,54L57.872,51.001ZM52.05,59C52.125,59.369 52.282,59.709 52.5,60L47.5,60C47.718,59.709 47.875,59.369 47.95,59L52.05,59ZM44.086,59L46.914,59C46.708,59.582 46.153,60 45.5,60C44.847,60 44.292,59.582 44.086,59ZM53.086,59C53.292,59.582 53.847,60 54.5,60C55.153,60 55.708,59.582 55.914,59L53.086,59ZM50,46.899L52.099,45.5L50,44.101L47.901,45.5L50,46.899ZM47,50L52,50L52,55L47,55L47,50ZM48,51L48,54L51,54L51,51L48,51ZM42,51L45,51L45,54L42,54L42,55L46,55L46,50L42,50L42,51Z" style="fill:white;"/>
        </g>
    </g>
</svg>
